<svg width="220" height="164" viewBox="0 0 220 164" fill="none" xmlns="http://www.w3.org/2000/svg">
<path d="M220 144.056H0V144.166H220V144.056Z" fill="#D7DEE3"/>
<path d="M37.6553 148.245H23.0825V148.355H37.6553V148.245Z" fill="#D7DEE3"/>
<path d="M95.8718 147.053H75.3018V147.163H95.8718V147.053Z" fill="#D7DEE3"/>
<path d="M58.0754 151.646H49.6318V151.756H58.0754V151.646Z" fill="#D7DEE3"/>
<path d="M150.718 149.736H137.425V149.846H150.718V149.736Z" fill="#D7DEE3"/>
<path d="M163.134 149.736H154.633V149.846H163.134V149.736Z" fill="#D7DEE3"/>
<path d="M197.96 151.593H172.194V151.703H197.96V151.593Z" fill="#D7DEE3"/>
<path d="M104.28 124.432H19.3205C18.6549 124.431 18.017 124.166 17.5468 123.695C17.0766 123.224 16.8125 122.585 16.8125 121.92V2.4904C16.8183 1.82865 17.0849 1.19591 17.5545 0.729616C18.0241 0.263322 18.6587 0.00113361 19.3205 0H104.28C104.946 0 105.585 0.264699 106.057 0.735865C106.528 1.20703 106.793 1.84607 106.793 2.5124V121.92C106.793 122.586 106.528 123.225 106.057 123.696C105.585 124.167 104.946 124.432 104.28 124.432ZM19.3205 0.0880003C18.6841 0.0891659 18.0742 0.342789 17.6246 0.7932C17.175 1.24361 16.9225 1.85401 16.9225 2.4904V121.92C16.9225 122.556 17.175 123.166 17.6246 123.617C18.0742 124.067 18.6841 124.321 19.3205 124.322H104.28C104.917 124.321 105.527 124.067 105.978 123.617C106.428 123.167 106.681 122.556 106.683 121.92V2.4904C106.681 1.8536 106.428 1.24322 105.978 0.792931C105.527 0.342646 104.917 0.0891634 104.28 0.0880003H19.3205Z" fill="#D7DEE3"/>
<path d="M199.456 124.432H114.492C113.826 124.431 113.188 124.166 112.717 123.695C112.246 123.224 111.981 122.586 111.98 121.92V2.4904C111.987 1.82825 112.255 1.19551 112.725 0.729341C113.195 0.263168 113.83 0.00112125 114.492 0H199.456C200.117 0.00228998 200.751 0.26499 201.22 0.73116C201.688 1.19733 201.954 1.82941 201.96 2.4904V121.92C201.96 122.584 201.697 123.222 201.227 123.693C200.758 124.164 200.121 124.43 199.456 124.432ZM114.492 0.0880003C113.856 0.0891634 113.245 0.342646 112.795 0.792931C112.345 1.24322 112.091 1.8536 112.09 2.4904V121.92C112.091 122.556 112.345 123.167 112.795 123.617C113.245 124.067 113.856 124.321 114.492 124.322H199.456C200.093 124.321 200.704 124.067 201.154 123.617C201.604 123.167 201.858 122.556 201.859 121.92V2.4904C201.858 1.8536 201.604 1.24322 201.154 0.792931C200.704 0.342646 200.093 0.0891634 199.456 0.0880003H114.492Z" fill="#D7DEE3"/>
<path d="M39.3845 83.6967L144.074 83.6967V18.1851L39.3845 18.1851L39.3845 83.6967Z" fill="#E8ECEF"/>
<path d="M142.023 80.617V21.2654L41.4302 21.2654V80.617H142.023Z" fill="#F4F6F8"/>
<path d="M128.784 80.617L118.461 21.2654H110.854L121.172 80.617H128.784Z" fill="white"/>
<path d="M119.416 80.617L109.098 21.2654H105.697L116.015 80.617H119.416Z" fill="white"/>
<path d="M102.766 80.617L92.4484 21.2654H84.8408L95.1588 80.617H102.766Z" fill="white"/>
<path d="M83.5869 80.617L73.2645 21.2654H69.8633L80.1813 80.617H83.5869Z" fill="white"/>
<path d="M115.592 80.617V21.2654H115.073V80.617H115.592Z" fill="#E8ECEF"/>
<path d="M142.023 80.6213V21.2697H141.504V80.6213H142.023Z" fill="#E8ECEF"/>
<path d="M117.643 80.6169V21.2654H115.593V80.6169H117.643Z" fill="#E8ECEF"/>
<path d="M90.2002 80.617V21.2654H89.681V80.617H90.2002Z" fill="#E8ECEF"/>
<path d="M92.2461 80.6169V21.2654H90.1957V80.6169H92.2461Z" fill="#E8ECEF"/>
<path d="M64.79 80.617V21.2654H64.2708V80.617H64.79Z" fill="#E8ECEF"/>
<path d="M66.8403 80.6213V21.2697H64.7899V80.6213H66.8403Z" fill="#E8ECEF"/>
<path d="M39.3799 83.6969L39.3799 18.1853H38.8607L38.8607 83.6969H39.3799Z" fill="#E8ECEF"/>
<path d="M28.745 13.6886H148.72C148.901 13.6886 149.075 13.6169 149.204 13.4891C149.332 13.3613 149.405 13.1879 149.406 13.0066C149.406 12.8245 149.334 12.6499 149.205 12.5212C149.076 12.3925 148.902 12.3202 148.72 12.3202H28.745C28.5637 12.3213 28.3902 12.3942 28.2625 12.5228C28.1347 12.6514 28.063 12.8253 28.063 13.0066C28.0641 13.1871 28.1364 13.3599 28.264 13.4875C28.3917 13.6152 28.5645 13.6874 28.745 13.6886Z" fill="#E8ECEF"/>
<g opacity="0.6">
<path d="M101.521 130.535H147.043L147.043 10.9998H101.521L101.521 130.535Z" fill="#EEF1F5"/>
<path d="M129.201 131.511H133.016L131.947 11.9763H130.24L129.201 131.511Z" fill="#C8D0D8"/>
<path d="M137.619 131.511H139.462L138.943 11.9763H138.12L137.619 131.511Z" fill="#C8D0D8"/>
<path d="M118.14 131.511H119.979L119.464 11.9763H118.641L118.14 131.511Z" fill="#C8D0D8"/>
<path d="M108.768 131.511H110.607L110.092 11.9763H109.269L108.768 131.511Z" fill="#C8D0D8"/>
</g>
<g opacity="0.6">
<path d="M31.0948 130.535H53.856L53.856 10.9998H31.0948L31.0948 130.535Z" fill="#EEF1F5"/>
<path d="M44.937 131.511H46.8422L46.3098 11.9763H45.4562L44.937 131.511Z" fill="#C8D0D8"/>
<path d="M49.1436 131.511H50.0632L49.808 11.9763H49.3944L49.1436 131.511Z" fill="#C8D0D8"/>
<path d="M39.4062 131.511H40.3259L40.0662 11.9763H39.657L39.4062 131.511Z" fill="#C8D0D8"/>
<path d="M34.7202 131.511H35.6398L35.3802 11.9763H34.9666L34.7202 131.511Z" fill="#C8D0D8"/>
</g>
<path d="M189.081 29.4801H158.884V67.1705H189.081V29.4801Z" fill="#C8D0D8"/>
<path d="M190.41 29.4801H159.337V67.1705H190.41V29.4801Z" fill="#EEF1F5"/>
<path d="M188.03 64.4952V32.1552H161.722V64.4952H188.03Z" fill="#F4F6F8"/>
<path d="M188.03 64.4952V32.1552H187.783V64.4952H188.03Z" fill="#C8D0D8"/>
<path d="M183.578 46.2003C185.062 44.7157 185.062 42.3086 183.578 40.824C182.093 39.3394 179.686 39.3394 178.201 40.824C176.717 42.3086 176.717 44.7157 178.201 46.2003C179.686 47.6849 182.093 47.6849 183.578 46.2003Z" fill="#E8ECEF"/>
<path d="M180.28 54.6776C183.298 51.6602 183.298 46.7681 180.28 43.7508C177.263 40.7334 172.371 40.7334 169.354 43.7508C166.336 46.7681 166.336 51.6602 169.354 54.6776C172.371 57.6949 177.263 57.6949 180.28 54.6776Z" fill="white"/>
<path d="M172.807 44.3795C173.289 42.3361 172.024 40.2886 169.98 39.8063C167.937 39.324 165.889 40.5895 165.407 42.633C164.925 44.6764 166.19 46.7239 168.234 47.2062C170.277 47.6885 172.325 46.4229 172.807 44.3795Z" fill="#E8ECEF"/>
<path d="M157.986 99.1583H153.859V141.231H157.986V99.1583Z" fill="#E8ECEF"/>
<path d="M196.777 96.6416H152.856V99.1584H196.777V96.6416Z" fill="#E8ECEF"/>
<path d="M194.088 141.231H155.54V144.056H194.088V141.231Z" fill="#E8ECEF"/>
<path d="M195.774 99.1583H157.986V141.231H195.774V99.1583Z" fill="#F4F6F8"/>
<path d="M161.427 116.754H192.328V103.845H161.427V116.754Z" fill="#E8ECEF"/>
<path d="M161.427 135.74H192.328V122.83H161.427V135.74Z" fill="#E8ECEF"/>
<path d="M180.4 103.083H173.355C172.913 103.083 172.555 103.442 172.555 103.884V104.289C172.555 104.731 172.913 105.09 173.355 105.09H180.4C180.842 105.09 181.201 104.731 181.201 104.289V103.884C181.201 103.442 180.842 103.083 180.4 103.083Z" fill="#F4F6F8"/>
<path d="M180.4 122.074H173.355C172.913 122.074 172.555 122.432 172.555 122.875V123.279C172.555 123.722 172.913 124.08 173.355 124.08H180.4C180.842 124.08 181.201 123.722 181.201 123.279V122.875C181.201 122.432 180.842 122.074 180.4 122.074Z" fill="#F4F6F8"/>
<path d="M84.291 143.929C89.4625 143.089 92.9743 138.217 92.1349 133.045C91.2954 127.874 86.4226 124.362 81.2511 125.201C76.0795 126.041 72.5677 130.914 73.4072 136.085C74.2466 141.257 79.1195 144.768 84.291 143.929Z" fill="#D7DEE3"/>
<path d="M70.0955 143.901C76.5503 142.853 80.9335 136.771 79.8858 130.316C78.838 123.861 72.756 119.478 66.3012 120.526C59.8464 121.574 55.4631 127.656 56.5109 134.111C57.5587 140.565 63.6407 144.949 70.0955 143.901Z" fill="#EEF1F5"/>
<path d="M110 163.926C157.116 163.926 195.312 161.696 195.312 158.946C195.312 156.195 157.116 153.965 110 153.965C62.8838 153.965 24.6885 156.195 24.6885 158.946C24.6885 161.696 62.8838 163.926 110 163.926Z" fill="#EEF1F5"/>
<path d="M55.7083 62.7177C52.7999 62.7177 51.4315 59.7917 51.3743 59.6685C51.3245 59.5315 51.328 59.3809 51.3842 59.2464C51.4403 59.1119 51.5449 59.0034 51.6773 58.9425C51.8097 58.8815 51.9602 58.8726 52.0988 58.9174C52.2375 58.9623 52.3543 59.0576 52.4259 59.1845C52.4259 59.2241 53.5831 61.6221 55.7963 61.5605C55.9418 61.5687 56.0789 61.6313 56.1804 61.7358C56.2819 61.8404 56.3403 61.9793 56.3442 62.1249C56.3481 62.2706 56.2971 62.4124 56.2013 62.5222C56.1055 62.632 55.9719 62.7018 55.8271 62.7177H55.7083Z" fill="#00B8AD"/>
<path d="M93.7201 22.0837C93.467 22.0848 93.2142 22.0687 92.9633 22.0353C92.8882 22.024 92.816 21.9981 92.7509 21.9589C92.6858 21.9198 92.6291 21.8682 92.584 21.8071C92.5388 21.746 92.5061 21.6766 92.4878 21.6029C92.4695 21.5292 92.4658 21.4526 92.4771 21.3775C92.4884 21.3024 92.5143 21.2302 92.5535 21.1651C92.5926 21.1001 92.6442 21.0433 92.7053 20.9982C92.7664 20.953 92.8358 20.9203 92.9095 20.902C92.9832 20.8837 93.0598 20.88 93.1349 20.8913C93.1613 20.8913 95.8101 21.2653 96.9717 19.3777C97.0113 19.313 97.0632 19.2567 97.1246 19.2121C97.1859 19.1674 97.2554 19.1353 97.3292 19.1175C97.4029 19.0997 97.4794 19.0967 97.5544 19.1085C97.6293 19.1203 97.7012 19.1467 97.7659 19.1863C97.8306 19.2259 97.8869 19.2778 97.9315 19.3392C97.9762 19.4005 98.0083 19.47 98.0261 19.5438C98.0439 19.6175 98.0469 19.694 98.0351 19.769C98.0233 19.8439 97.9969 19.9158 97.9573 19.9805C96.8001 21.8109 94.7981 22.0837 93.7201 22.0837Z" fill="#00B8AD"/>
<path opacity="0.6" d="M93.7201 22.0837C93.467 22.0848 93.2142 22.0687 92.9633 22.0353C92.8882 22.024 92.816 21.9981 92.7509 21.9589C92.6858 21.9198 92.6291 21.8682 92.584 21.8071C92.5388 21.746 92.5061 21.6766 92.4878 21.6029C92.4695 21.5292 92.4658 21.4526 92.4771 21.3775C92.4884 21.3024 92.5143 21.2302 92.5535 21.1651C92.5926 21.1001 92.6442 21.0433 92.7053 20.9982C92.7664 20.953 92.8358 20.9203 92.9095 20.902C92.9832 20.8837 93.0598 20.88 93.1349 20.8913C93.1613 20.8913 95.8101 21.2653 96.9717 19.3777C97.0113 19.313 97.0632 19.2567 97.1246 19.2121C97.1859 19.1674 97.2554 19.1353 97.3292 19.1175C97.4029 19.0997 97.4794 19.0967 97.5544 19.1085C97.6293 19.1203 97.7012 19.1467 97.7659 19.1863C97.8306 19.2259 97.8869 19.2778 97.9315 19.3392C97.9762 19.4005 98.0083 19.47 98.0261 19.5438C98.0439 19.6175 98.0469 19.694 98.0351 19.769C98.0233 19.8439 97.9969 19.9158 97.9573 19.9805C96.8001 21.8109 94.7981 22.0837 93.7201 22.0837Z" fill="white"/>
<path d="M28.4241 44.1187C27.3078 44.0807 26.2236 43.7351 25.2913 43.1199C25.2255 43.0778 25.169 43.0227 25.1252 42.958C25.0813 42.8934 25.0511 42.8205 25.0363 42.7438C25.0215 42.6671 25.0225 42.5882 25.0391 42.5119C25.0557 42.4355 25.0877 42.3634 25.1331 42.2998C25.1785 42.2362 25.2363 42.1825 25.3031 42.142C25.3698 42.1014 25.4441 42.0749 25.5215 42.0639C25.5988 42.053 25.6776 42.0578 25.753 42.0783C25.8284 42.0987 25.8989 42.1342 25.9601 42.1827C25.9821 42.1827 28.1997 43.6831 30.0697 42.4907C30.1337 42.4442 30.2066 42.4112 30.2839 42.3938C30.3612 42.3764 30.4412 42.375 30.519 42.3897C30.5968 42.4044 30.6708 42.4349 30.7364 42.4792C30.802 42.5235 30.8579 42.5808 30.9006 42.6475C30.9432 42.7142 30.9718 42.7889 30.9845 42.8671C30.9973 42.9453 30.9939 43.0252 30.9746 43.102C30.9553 43.1788 30.9205 43.2508 30.8723 43.3137C30.8241 43.3766 30.7636 43.4289 30.6945 43.4675C30.0167 43.8997 29.228 44.1259 28.4241 44.1187Z" fill="#00B8AD"/>
<path opacity="0.6" d="M28.4241 44.1187C27.3078 44.0807 26.2236 43.7351 25.2913 43.1199C25.2255 43.0778 25.169 43.0227 25.1252 42.958C25.0813 42.8934 25.0511 42.8205 25.0363 42.7438C25.0215 42.6671 25.0225 42.5882 25.0391 42.5119C25.0557 42.4355 25.0877 42.3634 25.1331 42.2998C25.1785 42.2362 25.2363 42.1825 25.3031 42.142C25.3698 42.1014 25.4441 42.0749 25.5215 42.0639C25.5988 42.053 25.6776 42.0578 25.753 42.0783C25.8284 42.0987 25.8989 42.1342 25.9601 42.1827C25.9821 42.1827 28.1997 43.6831 30.0697 42.4907C30.1337 42.4442 30.2066 42.4112 30.2839 42.3938C30.3612 42.3764 30.4412 42.375 30.519 42.3897C30.5968 42.4044 30.6708 42.4349 30.7364 42.4792C30.802 42.5235 30.8579 42.5808 30.9006 42.6475C30.9432 42.7142 30.9718 42.7889 30.9845 42.8671C30.9973 42.9453 30.9939 43.0252 30.9746 43.102C30.9553 43.1788 30.9205 43.2508 30.8723 43.3137C30.8241 43.3766 30.7636 43.4289 30.6945 43.4675C30.0167 43.8997 29.228 44.1259 28.4241 44.1187Z" fill="white"/>
<path d="M179.357 28.6881C178.243 28.658 177.158 28.3232 176.22 27.7201C176.094 27.6331 176.008 27.4997 175.98 27.3491C175.953 27.1985 175.986 27.0431 176.073 26.9171C176.16 26.791 176.293 26.7047 176.444 26.677C176.594 26.6494 176.75 26.6827 176.876 26.7697C176.898 26.7697 179.12 28.2657 180.99 27.0777C181.054 27.0369 181.125 27.0092 181.199 26.996C181.274 26.9828 181.351 26.9844 181.424 27.0007C181.498 27.0171 181.568 27.0478 181.63 27.0912C181.693 27.1346 181.745 27.1898 181.786 27.2537C181.827 27.3175 181.855 27.3887 181.868 27.4633C181.881 27.5379 181.879 27.6143 181.863 27.6883C181.847 27.7623 181.816 27.8323 181.773 27.8943C181.729 27.9564 181.674 28.0093 181.61 28.0501C180.937 28.4767 180.154 28.6983 179.357 28.6881Z" fill="#00B8AD"/>
<path opacity="0.6" d="M179.357 28.6881C178.243 28.658 177.158 28.3232 176.22 27.7201C176.094 27.6331 176.008 27.4997 175.98 27.3491C175.953 27.1985 175.986 27.0431 176.073 26.9171C176.16 26.791 176.293 26.7047 176.444 26.677C176.594 26.6494 176.75 26.6827 176.876 26.7697C176.898 26.7697 179.12 28.2657 180.99 27.0777C181.054 27.0369 181.125 27.0092 181.199 26.996C181.274 26.9828 181.351 26.9844 181.424 27.0007C181.498 27.0171 181.568 27.0478 181.63 27.0912C181.693 27.1346 181.745 27.1898 181.786 27.2537C181.827 27.3175 181.855 27.3887 181.868 27.4633C181.881 27.5379 181.879 27.6143 181.863 27.6883C181.847 27.7623 181.816 27.8323 181.773 27.8943C181.729 27.9564 181.674 28.0093 181.61 28.0501C180.937 28.4767 180.154 28.6983 179.357 28.6881Z" fill="white"/>
<path d="M108.596 74.1354C105.899 74.1354 104.43 71.5218 104.364 71.403C104.289 71.2688 104.272 71.1107 104.314 70.9634C104.357 70.8161 104.456 70.6917 104.59 70.6176C104.724 70.5435 104.882 70.5257 105.03 70.5682C105.177 70.6107 105.301 70.71 105.376 70.8442C105.376 70.8794 106.696 73.185 108.896 72.9606C109.043 72.9555 109.186 73.0065 109.297 73.1032C109.408 73.1999 109.478 73.3351 109.493 73.4815C109.508 73.6279 109.467 73.7746 109.378 73.8919C109.29 74.0092 109.159 74.0884 109.014 74.1134C108.882 74.1266 108.737 74.1354 108.596 74.1354Z" fill="#00B8AD"/>
<path opacity="0.6" d="M108.596 74.1354C105.899 74.1354 104.43 71.5218 104.364 71.403C104.289 71.2688 104.272 71.1107 104.314 70.9634C104.357 70.8161 104.456 70.6917 104.59 70.6176C104.724 70.5435 104.882 70.5257 105.03 70.5682C105.177 70.6107 105.301 70.71 105.376 70.8442C105.376 70.8794 106.696 73.185 108.896 72.9606C109.043 72.9555 109.186 73.0065 109.297 73.1032C109.408 73.1999 109.478 73.3351 109.493 73.4815C109.508 73.6279 109.467 73.7746 109.378 73.8919C109.29 74.0092 109.159 74.0884 109.014 74.1134C108.882 74.1266 108.737 74.1354 108.596 74.1354Z" fill="white"/>
<path d="M34.76 85.8881C34.6199 85.887 34.485 85.8348 34.3806 85.7414C34.2761 85.6479 34.2093 85.5197 34.1926 85.3805C34.1759 85.2414 34.2104 85.101 34.2897 84.9855C34.3691 84.8699 34.4878 84.7873 34.6236 84.7529C34.65 84.7529 37.2328 84.0709 37.5848 81.8797C37.5969 81.8049 37.6237 81.7332 37.6635 81.6687C37.7034 81.6042 37.7555 81.5482 37.817 81.5039C37.8785 81.4596 37.9481 81.4278 38.0219 81.4104C38.0957 81.3929 38.1722 81.3902 38.247 81.4023C38.3218 81.4145 38.3935 81.4412 38.458 81.4811C38.5225 81.5209 38.5785 81.5731 38.6229 81.6346C38.6672 81.6961 38.699 81.7657 38.7164 81.8395C38.7338 81.9132 38.7365 81.9897 38.7244 82.0645C38.2536 85.0169 35.0372 85.8397 34.9008 85.8749C34.8544 85.8837 34.8073 85.8881 34.76 85.8881Z" fill="#00B8AD"/>
<path opacity="0.6" d="M34.76 85.8881C34.6199 85.887 34.485 85.8348 34.3806 85.7414C34.2761 85.6479 34.2093 85.5197 34.1926 85.3805C34.1759 85.2414 34.2104 85.101 34.2897 84.9855C34.3691 84.8699 34.4878 84.7873 34.6236 84.7529C34.65 84.7529 37.2328 84.0709 37.5848 81.8797C37.5969 81.8049 37.6237 81.7332 37.6635 81.6687C37.7034 81.6042 37.7555 81.5482 37.817 81.5039C37.8785 81.4596 37.9481 81.4278 38.0219 81.4104C38.0957 81.3929 38.1722 81.3902 38.247 81.4023C38.3218 81.4145 38.3935 81.4412 38.458 81.4811C38.5225 81.5209 38.5785 81.5731 38.6229 81.6346C38.6672 81.6961 38.699 81.7657 38.7164 81.8395C38.7338 81.9132 38.7365 81.9897 38.7244 82.0645C38.2536 85.0169 35.0372 85.8397 34.9008 85.8749C34.8544 85.8837 34.8073 85.8881 34.76 85.8881Z" fill="black"/>
<path d="M163.24 45.7819C163.096 45.7869 162.955 45.7377 162.846 45.6442C162.736 45.5506 162.666 45.4195 162.648 45.2765C162.63 45.1336 162.667 44.9892 162.75 44.8718C162.834 44.7545 162.958 44.6726 163.099 44.6423C163.125 44.6423 165.708 43.9647 166.06 41.7735C166.067 41.6942 166.091 41.6172 166.129 41.5474C166.167 41.4775 166.22 41.4163 166.282 41.3675C166.345 41.3186 166.418 41.2833 166.495 41.2636C166.572 41.2439 166.652 41.2403 166.731 41.253C166.81 41.2657 166.885 41.2944 166.952 41.3374C167.019 41.3804 167.076 41.4367 167.121 41.5029C167.165 41.569 167.195 41.6436 167.21 41.722C167.224 41.8003 167.222 41.8808 167.204 41.9583C166.729 44.9107 163.512 45.7335 163.376 45.7643C163.332 45.7767 163.286 45.7826 163.24 45.7819Z" fill="#00B8AD"/>
<path opacity="0.6" d="M163.24 45.7819C163.096 45.7869 162.955 45.7377 162.846 45.6442C162.736 45.5506 162.666 45.4195 162.648 45.2765C162.63 45.1336 162.667 44.9892 162.75 44.8718C162.834 44.7545 162.958 44.6726 163.099 44.6423C163.125 44.6423 165.708 43.9647 166.06 41.7735C166.067 41.6942 166.091 41.6172 166.129 41.5474C166.167 41.4775 166.22 41.4163 166.282 41.3675C166.345 41.3186 166.418 41.2833 166.495 41.2636C166.572 41.2439 166.652 41.2403 166.731 41.253C166.81 41.2657 166.885 41.2944 166.952 41.3374C167.019 41.3804 167.076 41.4367 167.121 41.5029C167.165 41.569 167.195 41.6436 167.21 41.722C167.224 41.8003 167.222 41.8808 167.204 41.9583C166.729 44.9107 163.512 45.7335 163.376 45.7643C163.332 45.7767 163.286 45.7826 163.24 45.7819Z" fill="black"/>
<path d="M186.881 67.7202H186.784C186.644 67.6938 183.379 67.0954 182.706 64.2002C182.688 64.1256 182.686 64.0483 182.698 63.9727C182.711 63.8972 182.739 63.825 182.78 63.7602C182.821 63.6955 182.874 63.6396 182.937 63.5958C183 63.5519 183.071 63.5211 183.146 63.505C183.22 63.4881 183.297 63.4861 183.373 63.4991C183.448 63.512 183.52 63.5398 183.585 63.5806C183.649 63.6215 183.705 63.6748 183.749 63.7373C183.793 63.7998 183.824 63.8704 183.841 63.945C184.342 66.101 186.965 66.585 186.991 66.585C187.13 66.6146 187.253 66.6939 187.337 66.8079C187.421 66.9219 187.461 67.0627 187.448 67.2039C187.436 67.3451 187.372 67.4768 187.269 67.5743C187.167 67.6719 187.032 67.7284 186.89 67.7334L186.881 67.7202Z" fill="#00B8AD"/>
<path d="M176.568 88.9329C175.56 88.9487 174.58 88.6038 173.804 87.9605C173.74 87.9142 173.685 87.8552 173.644 87.7869C173.604 87.7186 173.578 87.6427 173.568 87.5638C173.558 87.485 173.564 87.4049 173.586 87.3286C173.609 87.2524 173.647 87.1816 173.698 87.1207C173.749 87.0599 173.812 87.0102 173.884 86.9749C173.955 86.9397 174.033 86.9195 174.112 86.9157C174.191 86.9119 174.271 86.9246 174.345 86.953C174.419 86.9813 174.487 87.0247 174.544 87.0805C176.246 88.4973 178.636 87.3093 178.662 87.2961C178.798 87.226 178.957 87.2131 179.103 87.2602C179.249 87.3072 179.371 87.4103 179.441 87.5469C179.511 87.6834 179.524 87.8421 179.477 87.9882C179.43 88.1343 179.326 88.2556 179.19 88.3257C178.37 88.7157 177.475 88.9228 176.568 88.9329Z" fill="#00B8AD"/>
<path d="M149.6 16.7199C149.5 16.7207 149.401 16.6949 149.314 16.6451C149.195 16.5791 146.322 14.9159 146.674 11.9459C146.691 11.7936 146.769 11.6545 146.889 11.5592C147.009 11.4639 147.162 11.4202 147.314 11.4377C147.466 11.4552 147.605 11.5325 147.701 11.6526C147.796 11.7726 147.84 11.9256 147.822 12.0779C147.572 14.2779 149.877 15.6287 149.899 15.6419C150.011 15.7052 150.099 15.8042 150.148 15.9231C150.197 16.042 150.205 16.1739 150.171 16.2979C150.137 16.4219 150.062 16.5308 149.958 16.6073C149.855 16.6838 149.729 16.7234 149.6 16.7199Z" fill="#00B8AD"/>
<path d="M34.6675 19.0653C34.5918 19.0685 34.5162 19.0567 34.4451 19.0307C34.3739 19.0046 34.3086 18.9648 34.2528 18.9136C34.1971 18.8623 34.152 18.8005 34.1201 18.7318C34.0881 18.6631 34.0701 18.5888 34.0669 18.5131C34.0637 18.4374 34.0755 18.3618 34.1015 18.2907C34.1276 18.2195 34.1673 18.1542 34.2186 18.0984C34.2699 18.0427 34.3317 17.9975 34.4004 17.9656C34.4691 17.9337 34.5434 17.9157 34.6191 17.9125C36.8191 17.7189 37.6991 15.1933 37.6991 15.1669C37.7502 15.0265 37.8539 14.9114 37.9882 14.8459C38.1225 14.7804 38.277 14.7697 38.4191 14.8159C38.5612 14.8621 38.6797 14.9617 38.7498 15.0937C38.8199 15.2257 38.836 15.3797 38.7947 15.5233C38.7551 15.6597 37.6991 18.8057 34.7203 19.0433L34.6675 19.0653Z" fill="#00B8AD"/>
<path d="M77.5985 36.4759C76.0365 37.2063 74.6593 40.7175 75.1081 45.7599C75.5569 50.8023 65.1113 47.2647 63.6901 52.9143C61.1249 63.1399 78.3245 69.2867 85.6549 63.1399C90.1913 59.3383 94.4549 46.8071 93.8301 39.9695C93.1613 32.6171 81.7565 27.6847 77.5985 36.4759Z" fill="#1D2B36"/>
<path d="M94.1025 49.3765C94.2961 49.3193 94.5777 49.2357 94.8197 49.1565L95.5765 48.9013C96.0825 48.7253 96.5841 48.5317 97.0813 48.3249C98.0719 47.9182 99.0386 47.4554 99.9765 46.9388C101.815 45.9581 103.469 44.6659 104.865 43.1197C106.11 41.6413 107.003 39.6261 107.703 37.5581C108.059 36.5197 108.359 35.4505 108.614 34.3637C108.869 33.2769 109.111 32.1637 109.296 31.0945L111.091 31.2045C111.094 33.5839 110.836 35.9565 110.321 38.2797C110.059 39.4701 109.705 40.6382 109.261 41.7733C108.8 42.9714 108.183 44.1033 107.426 45.1393C105.876 47.1263 103.954 48.7927 101.767 50.0453C100.714 50.6681 99.6201 51.2208 98.4937 51.6997C97.9305 51.9373 97.3629 52.1397 96.7821 52.3553C96.4961 52.4565 96.2057 52.5533 95.9021 52.6413C95.5985 52.7293 95.3301 52.8129 94.9693 52.9009L94.1025 49.3765Z" fill="#7F3E3B"/>
<path d="M111.082 31.8074L111.83 29.119L108.86 29.3478C108.86 29.3478 108.649 31.1078 109.674 32.1682L111.082 31.8074Z" fill="#7F3E3B"/>
<path d="M112.275 25.9906L109.564 26.699L108.86 29.3478L111.83 29.119L112.275 25.9906Z" fill="#7F3E3B"/>
<path d="M90.7409 50.0629C92.1093 48.8177 95.5809 47.8629 95.5809 47.8629L99.3869 53.5829C99.3869 53.5829 95.0441 56.4825 93.2005 55.8093C91.2821 55.1405 89.4649 51.2201 90.7409 50.0629Z" fill="#00B8AD"/>
<path d="M78.2056 131.423L80.5772 134.028L87.384 129.179L85.0124 126.575L78.2056 131.423Z" fill="#7F3E3B"/>
<path d="M64.8208 141.715L68.002 143.295L72.6792 136.435L69.498 134.855L64.8208 141.715Z" fill="#7F3E3B"/>
<path d="M68.5081 142.903L66.0529 139.757C66.0116 139.702 65.9517 139.664 65.8844 139.65C65.8172 139.637 65.7472 139.648 65.6877 139.682L62.9201 141.266C62.8516 141.308 62.7928 141.364 62.7475 141.43C62.7022 141.496 62.6715 141.571 62.6573 141.65C62.6432 141.729 62.646 141.811 62.6655 141.888C62.685 141.966 62.7208 142.039 62.7705 142.102C63.6505 143.185 64.1213 143.664 65.2037 145.05C65.8637 145.899 67.2101 147.879 68.1253 149.054C69.0405 150.229 70.2549 149.389 69.9777 148.817C68.7369 146.251 68.6577 144.729 68.7017 143.506C68.7105 143.288 68.6419 143.075 68.5081 142.903Z" fill="#1D2B36"/>
<path d="M81.2854 134.077L79.6662 130.187C79.6376 130.117 79.5866 130.059 79.5212 130.022C79.4559 129.984 79.38 129.97 79.3054 129.98L75.8734 130.42C75.7917 130.429 75.7132 130.457 75.6445 130.502C75.5757 130.547 75.5186 130.607 75.4778 130.679C75.437 130.75 75.4136 130.83 75.4098 130.912C75.4059 130.994 75.4215 131.076 75.4554 131.151C76.045 132.501 76.4014 133.131 77.1142 134.842C77.5542 135.894 78.575 138.657 79.1778 140.122C79.7806 141.587 81.3294 141.24 81.215 140.597C80.7002 137.72 80.8762 135.863 81.303 134.732C81.3434 134.627 81.3627 134.515 81.3597 134.403C81.3566 134.29 81.3314 134.179 81.2854 134.077Z" fill="#1D2B36"/>
<path opacity="0.2" d="M87.3797 129.179L83.8729 131.679L81.2197 129.276L85.0081 126.575L87.3797 129.179Z" fill="black"/>
<path opacity="0.2" d="M69.4981 134.855L72.6793 136.435L70.2637 139.973L67.0825 138.389L69.4981 134.855Z" fill="black"/>
<path d="M95.5325 50.5076C95.5325 50.5076 95.6381 50.3492 93.7109 71.3724L79.3229 72.38C79.1557 66.5104 79.5957 62.3656 76.8545 50.3052C78.876 49.8981 80.9245 49.6393 82.9837 49.5308C85.1641 49.3853 87.3522 49.3971 89.5309 49.566C92.3425 49.8344 95.5325 50.5076 95.5325 50.5076Z" fill="#00B8AD"/>
<path d="M77.9372 53.7899C76.868 53.2971 75.9308 52.7691 74.9584 52.2103C73.986 51.6515 73.0664 51.0531 72.1512 50.4195C70.2884 49.1548 68.5565 47.7074 66.9812 46.0987L66.4004 45.4695L66.2508 45.3111C66.165 45.2125 66.0843 45.1097 66.0088 45.0031C65.8727 44.809 65.7549 44.6028 65.6568 44.3871C65.3655 43.6995 65.2158 42.9602 65.2168 42.2135C65.2266 41.0248 65.3862 39.8422 65.692 38.6935C66.2506 36.5437 67.026 34.4562 68.0064 32.4631L69.6872 33.1143C69.4276 34.1131 69.1812 35.1515 68.9612 36.1679C68.7412 37.1843 68.5564 38.2095 68.4332 39.2127C68.2904 40.156 68.252 41.1122 68.3188 42.0639C68.3408 42.3933 68.4244 42.7157 68.5652 43.0143C68.5652 43.0451 68.6092 43.0803 68.6224 43.0847C68.6224 43.0847 68.6356 43.0891 68.6224 43.0847L68.7588 43.2123L69.3 43.7271C70.8104 45.0949 72.429 46.3383 74.14 47.4451C74.998 48.0127 75.9 48.5319 76.78 49.0555C77.66 49.5791 78.606 50.0763 79.464 50.5119L77.9372 53.7899Z" fill="#7F3E3B"/>
<path d="M82.5177 51.1105C80.8853 48.8357 77.6777 48.8709 77.6777 48.8709L73.8101 54.5909C73.8101 54.5909 78.1265 57.5301 79.9701 56.8745C81.9237 56.1793 83.5253 52.5097 82.5177 51.1105Z" fill="#00B8AD"/>
<path d="M89.531 49.566L82.9838 49.5308C81.9806 49.9356 81.3998 52.5448 88.0438 54.7536C92.6506 52.1356 90.1998 49.808 89.531 49.566Z" fill="white"/>
<path d="M83.6703 42.1609C84.0707 44.2685 84.4623 48.1317 82.9839 49.5309C82.9839 49.5309 83.5559 51.6737 88.0439 54.7537C91.1899 51.5989 89.5311 49.5661 89.5311 49.5661C87.1859 48.9897 87.2563 47.2473 87.6743 45.6061L83.6703 42.1609Z" fill="#7F3E3B"/>
<path d="M97.2399 63.0871H97.1695C96.9374 63.068 96.7224 62.9578 96.5715 62.7805C96.4205 62.6031 96.346 62.3732 96.3643 62.1411C96.5227 60.1787 95.0443 58.6959 93.3459 56.9755C91.3967 55.0087 89.1835 52.7779 89.0955 49.3063C89.0897 49.0729 89.1768 48.8468 89.3377 48.6776C89.4986 48.5085 89.7201 48.4101 89.9535 48.4043C90.1869 48.3985 90.413 48.4856 90.5822 48.6465C90.7513 48.8074 90.8497 49.0289 90.8555 49.2623C90.9259 52.0343 92.7915 53.9175 94.5955 55.7391C96.3995 57.5607 98.3399 59.5143 98.1155 62.2819C98.0968 62.5014 97.9964 62.7058 97.8343 62.8549C97.6722 63.0039 97.4601 63.0868 97.2399 63.0871Z" fill="#1D2B36"/>
<path d="M84.3786 67.5397C84.3074 67.5395 84.2364 67.5306 84.1674 67.5133C83.9411 67.4571 83.7463 67.3135 83.6259 67.1138C83.5054 66.9142 83.4692 66.6749 83.525 66.4485C84.3742 62.9989 83.261 60.2885 82.0818 57.4373C81.0258 54.8765 79.9346 52.2277 80.4626 49.1301C80.5082 48.9058 80.6393 48.7081 80.8283 48.5789C81.0172 48.4497 81.2491 48.3993 81.4746 48.4382C81.7002 48.4771 81.9017 48.6024 82.0364 48.7874C82.1711 48.9725 82.2284 49.2027 82.1962 49.4293C81.7562 52.0253 82.7022 54.3309 83.7054 56.7685C84.8846 59.6241 86.2178 62.8625 85.2322 66.8885C85.1817 67.076 85.0706 67.2416 84.9162 67.3594C84.7618 67.4772 84.5728 67.5406 84.3786 67.5397Z" fill="#1D2B36"/>
<path opacity="0.2" d="M86.8474 44.8798L85.0874 45.0866C85.1727 45.5604 85.3426 46.015 85.589 46.4286C85.9366 46.9522 86.711 47.181 87.4766 47.203C87.4757 46.6587 87.5498 46.1168 87.6966 45.5926L86.8474 44.8798Z" fill="black"/>
<path d="M79.7765 40.0399C81.0657 43.3223 81.5365 44.7391 83.7849 45.9095C87.1641 47.6695 90.9129 45.3771 90.6313 41.7779C90.3805 38.5351 88.3169 33.7127 84.6077 33.4399C83.7909 33.3762 82.9713 33.5223 82.2267 33.8643C81.4822 34.2063 80.8373 34.7328 80.3534 35.394C79.8694 36.0551 79.5624 36.8289 79.4615 37.642C79.3605 38.4551 79.4689 39.2805 79.7765 40.0399Z" fill="#7F3E3B"/>
<path d="M83.3098 32.9646C85.8134 34.5046 83.6706 43.5642 79.4334 43.0846C75.1962 42.605 79.6094 30.6898 83.3098 32.9646Z" fill="#1D2B36"/>
<path d="M83.217 32.9998C81.3294 34.2538 82.6186 36.4362 88.981 35.1426C88.981 35.1382 86.3498 30.9142 83.217 32.9998Z" fill="#1D2B36"/>
<path d="M80.234 43.2297C80.5123 43.8515 81.0245 44.3385 81.6596 44.5849C82.5088 44.9017 83.006 44.1449 82.8388 43.3221C82.6848 42.5697 82.06 41.4917 81.18 41.5357C80.9877 41.5487 80.8017 41.6095 80.6388 41.7126C80.476 41.8157 80.3414 41.9578 80.2475 42.1261C80.1535 42.2944 80.103 42.4835 80.1007 42.6762C80.0983 42.8689 80.1442 43.0592 80.234 43.2297Z" fill="#7F3E3B"/>
<path d="M93.7199 71.3721C93.7199 71.3721 101.42 96.5093 102.04 107.325C102.683 118.575 85.9759 131.925 85.9759 131.925L81.8179 127.362C81.8179 127.362 95.3919 115.834 93.5307 107.483C90.9567 95.9725 83.1599 72.1113 83.1599 72.1113L93.7199 71.3721Z" fill="#1D2B36"/>
<path opacity="0.2" d="M88.9195 79.6001C88.2155 77.4001 86.6491 78.8785 86.1035 81.2105C87.1903 84.7305 88.4487 88.8489 89.6455 92.9717C90.1075 89.3197 90.2967 83.9121 88.9195 79.6001Z" fill="black"/>
<path d="M80.6919 127.142L85.9675 132.585L88.2203 131.34L82.6455 125.272L80.6919 127.142Z" fill="#00B8AD"/>
<path d="M89.914 71.6405C89.914 71.6405 87.714 96.2805 85.514 110.004C83.732 121.092 71.6276 139.203 71.6276 139.203L67.1924 137.139C67.1924 137.139 75.328 117.748 76.5952 110.211C80.6608 86.0857 75.1696 79.1249 79.3276 72.3709L89.914 71.6405Z" fill="#1D2B36"/>
<path d="M66.8799 137.188L71.8827 139.643L73.5239 137.606L67.6719 134.847L66.8799 137.188Z" fill="#00B8AD"/>
<path d="M79.0502 71.5528L78.4914 72.8728C78.4474 72.974 78.5706 73.0708 78.7378 73.0576L93.8298 72.0016C93.9574 72.0016 94.063 71.9224 94.063 71.8388L94.1026 70.5188C94.1026 70.4308 93.9882 70.3648 93.8474 70.3736L79.2746 71.3944C79.2259 71.3961 79.1787 71.4121 79.1388 71.4402C79.0989 71.4683 79.0682 71.5075 79.0502 71.5528Z" fill="white"/>
<path d="M81.1183 73.0398L80.7311 73.0662C80.6519 73.0662 80.5903 73.0354 80.5903 72.987L80.6563 71.3018C80.6563 71.2534 80.7267 71.205 80.8015 71.2006L81.1931 71.1742C81.2723 71.1742 81.3339 71.205 81.3295 71.2534L81.2635 72.9386C81.2635 72.9958 81.1975 73.0398 81.1183 73.0398Z" fill="#1D2B36"/>
<path d="M92.7431 72.2302L92.3515 72.2566C92.2723 72.2566 92.2107 72.2258 92.2151 72.1774L92.2811 70.4922C92.2811 70.4438 92.3471 70.3998 92.4263 70.391L92.8135 70.3646C92.8927 70.3646 92.9543 70.3954 92.9543 70.4438L92.8883 72.1334C92.8839 72.1818 92.8399 72.2258 92.7431 72.2302Z" fill="#1D2B36"/>
<path d="M86.9308 72.6396L86.5392 72.666C86.4644 72.666 86.4028 72.6352 86.4028 72.5868L86.4688 70.8972C86.4688 70.8488 86.5348 70.8048 86.614 70.8004L87.0056 70.774C87.0804 70.774 87.142 70.8048 87.142 70.8532L87.076 72.5384C87.076 72.6 87.01 72.6308 86.9308 72.6396Z" fill="#1D2B36"/>
<path d="M85.0782 38.8079C84.867 38.8783 84.779 39.1951 84.8846 39.5207L85.6546 39.2743C85.549 38.9487 85.2894 38.7199 85.0782 38.8079Z" fill="#1D2B36"/>
<path d="M88.4399 37.7432C88.2243 37.8136 88.1363 38.1348 88.2419 38.4604L89.0163 38.2096C88.8799 37.884 88.6291 37.6772 88.4399 37.7432Z" fill="#1D2B36"/>
<path d="M88.3301 37.7915L89.0385 37.3163C89.0385 37.3163 88.8361 38.0555 88.3301 37.7915Z" fill="#1D2B36"/>
<path d="M87.5601 39.0717C88.0024 39.6151 88.5177 40.0948 89.0913 40.4973C88.985 40.6416 88.8483 40.761 88.691 40.8469C88.5336 40.9327 88.3594 40.9831 88.1805 40.9945L87.5601 39.0717Z" fill="#630F0F"/>
<path d="M87.6131 42.3631C87.626 42.3519 87.6353 42.3372 87.64 42.3208C87.6447 42.3044 87.6445 42.287 87.6395 42.2707C87.6325 42.2497 87.6174 42.2323 87.5976 42.2224C87.5778 42.2125 87.5549 42.2109 87.5339 42.2179C87.1973 42.3344 86.8381 42.3704 86.4851 42.323C86.132 42.2757 85.795 42.1462 85.5011 41.9451C85.4933 41.9372 85.4841 41.931 85.4739 41.9267C85.4637 41.9225 85.4527 41.9203 85.4417 41.9203C85.4306 41.9203 85.4197 41.9225 85.4095 41.9267C85.3993 41.931 85.3901 41.9372 85.3823 41.9451C85.3739 41.9525 85.3671 41.9616 85.3625 41.9719C85.3579 41.9821 85.3555 41.9932 85.3555 42.0045C85.3555 42.0157 85.3579 42.0268 85.3625 42.037C85.3671 42.0473 85.3739 42.0564 85.3823 42.0639C85.6968 42.2892 86.0612 42.4349 86.4444 42.4885C86.8275 42.5422 87.218 42.5021 87.5823 42.3719L87.6131 42.3631Z" fill="#1D2B36"/>
<path d="M83.9654 38.6097C83.9877 38.5911 84.0044 38.5667 84.0138 38.5393C84.0743 38.3345 84.1835 38.1474 84.3322 37.9942C84.4809 37.8409 84.6645 37.726 84.8674 37.6593C84.8888 37.6541 84.9089 37.6447 84.9267 37.6317C84.9444 37.6187 84.9595 37.6024 84.9709 37.5836C84.9823 37.5648 84.99 37.5439 84.9933 37.5222C84.9967 37.5005 84.9958 37.4783 84.9906 37.4569C84.9854 37.4355 84.976 37.4154 84.963 37.3976C84.9501 37.3798 84.9337 37.3648 84.9149 37.3534C84.8961 37.3419 84.8752 37.3343 84.8535 37.3309C84.8318 37.3275 84.8096 37.3285 84.7882 37.3337C84.5332 37.414 84.3011 37.5542 84.1112 37.7425C83.9214 37.9308 83.7794 38.1617 83.697 38.4161C83.683 38.4581 83.6863 38.5039 83.7061 38.5435C83.7259 38.5831 83.7606 38.6132 83.8026 38.6273C83.8288 38.6395 83.8577 38.6443 83.8864 38.6411C83.9151 38.638 83.9424 38.6272 83.9654 38.6097Z" fill="#1D2B36"/>
<path d="M89.2365 36.4364C89.2459 36.4314 89.2535 36.4238 89.2585 36.4144C89.2726 36.3971 89.2831 36.3773 89.2894 36.3559C89.2957 36.3346 89.2977 36.3122 89.2953 36.29C89.2928 36.2679 89.2859 36.2465 89.2751 36.227C89.2642 36.2076 89.2496 36.1905 89.2321 36.1768C89.0262 36.0065 88.7827 35.8877 88.5218 35.8303C88.2609 35.7729 87.99 35.7786 87.7317 35.8468C87.7104 35.8537 87.6907 35.8648 87.6738 35.8795C87.6569 35.8942 87.6431 35.9121 87.6333 35.9322C87.6234 35.9523 87.6177 35.9742 87.6165 35.9966C87.6152 36.0189 87.6185 36.0413 87.6261 36.0624C87.6411 36.1037 87.6713 36.1376 87.7106 36.1573C87.7499 36.1769 87.7953 36.1808 87.8373 36.168C88.042 36.1154 88.2564 36.1127 88.4623 36.1602C88.6683 36.2076 88.8599 36.3039 89.0209 36.4408C89.0516 36.4656 89.09 36.4788 89.1295 36.478C89.1689 36.4772 89.2068 36.4624 89.2365 36.4364Z" fill="#1D2B36"/>
<path d="M71.6103 33.7612C71.5034 33.761 71.3986 33.7321 71.3067 33.6776L57.9219 25.432C57.8045 25.3456 57.724 25.2182 57.6962 25.0752C57.6684 24.9321 57.6954 24.7838 57.7719 24.6598C57.8483 24.5357 57.9686 24.4449 58.1088 24.4054C58.2491 24.3659 58.3991 24.3805 58.5291 24.4464L71.9139 32.692C72.0218 32.7575 72.1052 32.8566 72.1514 32.974C72.1976 33.0915 72.2039 33.2209 72.1694 33.3423C72.1349 33.4637 72.0616 33.5705 71.9606 33.6461C71.8595 33.7218 71.7365 33.7622 71.6103 33.7612Z" fill="#00B8AD"/>
<path d="M60.9533 26.3427C61.7057 26.3119 62.4801 26.2767 62.5813 25.5991C62.6825 24.9215 61.9565 24.6619 61.2613 24.4067L61.0721 24.3363C61.0721 24.2703 61.0413 24.2043 61.0237 24.1427L61.1777 23.9711C61.6705 23.4255 62.1853 22.8623 61.7849 22.3255C61.3845 21.7887 60.6981 22.1055 60.0249 22.4179L59.8181 22.5147C59.7609 22.4751 59.7037 22.4443 59.6421 22.4091C59.5805 22.3739 59.6421 22.2683 59.6421 22.2067C59.6069 21.4587 59.5717 20.6843 58.8985 20.5831C58.2253 20.4819 57.9613 21.2079 57.7061 21.9031C57.6841 21.9603 57.6621 22.0263 57.6357 22.0923L57.4377 22.1407L57.2705 21.9911C56.7249 21.4939 56.1617 20.9835 55.6249 21.3795C55.0881 21.7755 55.4049 22.4663 55.7173 23.1395L55.8141 23.3463C55.7757 23.4015 55.7405 23.4588 55.7085 23.5179H55.5061C54.7581 23.5531 53.9793 23.5883 53.8781 24.2659C53.7769 24.9435 54.5073 25.2031 55.1981 25.4583L55.3873 25.5287C55.3873 25.5947 55.4181 25.6607 55.4357 25.7223C55.3829 25.7839 55.3301 25.8455 55.2817 25.8939C54.7889 26.4395 54.2785 26.9983 54.6745 27.5395C55.0705 28.0807 55.7613 27.7551 56.4345 27.4471L56.6457 27.3503L56.8173 27.4559C56.8173 27.5263 56.8173 27.5967 56.8173 27.6583C56.8525 28.4063 56.8877 29.1807 57.5609 29.2819C58.2341 29.3831 58.5025 28.6571 58.7577 27.9619C58.7577 27.9091 58.8017 27.8431 58.8237 27.7727C58.8906 27.7608 58.9568 27.7446 59.0217 27.7243L59.1933 27.8783C59.7345 28.3711 60.2977 28.8859 60.8389 28.4899C61.3801 28.0939 61.0545 27.4031 60.7421 26.7299C60.7157 26.6727 60.6805 26.5979 60.6497 26.5231L60.7553 26.3515L60.9533 26.3427Z" fill="#00B8AD"/>
<path opacity="0.7" d="M60.9533 26.3427C61.7057 26.3119 62.4801 26.2767 62.5813 25.5991C62.6825 24.9215 61.9565 24.6619 61.2613 24.4067L61.0721 24.3363C61.0721 24.2703 61.0413 24.2043 61.0237 24.1427L61.1777 23.9711C61.6705 23.4255 62.1853 22.8623 61.7849 22.3255C61.3845 21.7887 60.6981 22.1055 60.0249 22.4179L59.8181 22.5147C59.7609 22.4751 59.7037 22.4443 59.6421 22.4091C59.5805 22.3739 59.6421 22.2683 59.6421 22.2067C59.6069 21.4587 59.5717 20.6843 58.8985 20.5831C58.2253 20.4819 57.9613 21.2079 57.7061 21.9031C57.6841 21.9603 57.6621 22.0263 57.6357 22.0923L57.4377 22.1407L57.2705 21.9911C56.7249 21.4939 56.1617 20.9835 55.6249 21.3795C55.0881 21.7755 55.4049 22.4663 55.7173 23.1395L55.8141 23.3463C55.7757 23.4015 55.7405 23.4588 55.7085 23.5179H55.5061C54.7581 23.5531 53.9793 23.5883 53.8781 24.2659C53.7769 24.9435 54.5073 25.2031 55.1981 25.4583L55.3873 25.5287C55.3873 25.5947 55.4181 25.6607 55.4357 25.7223C55.3829 25.7839 55.3301 25.8455 55.2817 25.8939C54.7889 26.4395 54.2785 26.9983 54.6745 27.5395C55.0705 28.0807 55.7613 27.7551 56.4345 27.4471L56.6457 27.3503L56.8173 27.4559C56.8173 27.5263 56.8173 27.5967 56.8173 27.6583C56.8525 28.4063 56.8877 29.1807 57.5609 29.2819C58.2341 29.3831 58.5025 28.6571 58.7577 27.9619C58.7577 27.9091 58.8017 27.8431 58.8237 27.7727C58.8906 27.7608 58.9568 27.7446 59.0217 27.7243L59.1933 27.8783C59.7345 28.3711 60.2977 28.8859 60.8389 28.4899C61.3801 28.0939 61.0545 27.4031 60.7421 26.7299C60.7157 26.6727 60.6805 26.5979 60.6497 26.5231L60.7553 26.3515L60.9533 26.3427Z" fill="white"/>
<path d="M67.6149 33.9019L67.0649 30.3819L70.6553 32.1419C70.5201 32.7345 70.2141 33.2744 69.7753 33.6951C69.5948 33.9007 69.3598 34.0511 69.0974 34.1289C68.8351 34.2068 68.5561 34.2089 68.2925 34.1351L67.6149 33.9019Z" fill="#7F3E3B"/>
<path d="M69.0801 28.657L70.9193 30.2718L70.6553 32.1198L67.0649 30.3774L69.0801 28.657Z" fill="#7F3E3B"/>
<path d="M69.6606 144.588C69.698 144.562 69.7332 144.532 69.7662 144.5C69.804 144.466 69.8317 144.422 69.8464 144.373C69.8611 144.325 69.8623 144.273 69.8498 144.223C69.7442 143.783 68.5298 143.343 68.3934 143.312C68.3784 143.306 68.3616 143.305 68.3457 143.309C68.3298 143.313 68.3157 143.322 68.3054 143.334C68.2964 143.348 68.2915 143.364 68.2915 143.381C68.2915 143.397 68.2964 143.413 68.3054 143.427C68.5034 143.867 68.8994 144.588 69.3438 144.663C69.4551 144.68 69.5685 144.653 69.6606 144.588ZM68.5298 143.541C69.0094 143.722 69.6298 144.03 69.687 144.263C69.6911 144.285 69.6892 144.307 69.6815 144.328C69.6737 144.349 69.6604 144.368 69.643 144.382C69.6095 144.424 69.5656 144.458 69.5155 144.478C69.4655 144.499 69.4109 144.507 69.357 144.5C69.115 144.456 68.8158 144.104 68.5298 143.541Z" fill="#00B8AD"/>
<path d="M69.8851 143.413C69.9138 143.396 69.9392 143.374 69.9599 143.347C70.0028 143.295 70.0263 143.23 70.0263 143.163C70.0263 143.095 70.0028 143.03 69.9599 142.978C69.9272 142.922 69.8827 142.874 69.8294 142.838C69.7762 142.801 69.7156 142.777 69.6519 142.767C69.1459 142.674 68.3319 143.299 68.3011 143.325C68.2897 143.335 68.2809 143.347 68.2755 143.361C68.2701 143.375 68.2683 143.39 68.2703 143.405C68.2728 143.419 68.2784 143.432 68.2868 143.443C68.2952 143.455 68.3061 143.464 68.3187 143.471C68.8305 143.642 69.3872 143.622 69.8851 143.413ZM68.5651 143.347C68.8664 143.102 69.2374 142.957 69.6255 142.934C69.666 142.939 69.7047 142.953 69.7383 142.976C69.772 142.999 69.7997 143.03 69.8191 143.066C69.8763 143.158 69.8499 143.207 69.8191 143.237C69.6607 143.427 68.9391 143.462 68.5387 143.361L68.5651 143.347Z" fill="#00B8AD"/>
<path d="M81.3648 136.07C81.4543 136.345 81.6283 136.586 81.862 136.756C81.9278 136.795 82.0015 136.819 82.0776 136.826C82.1537 136.833 82.2303 136.822 82.302 136.796C82.3449 136.784 82.3835 136.76 82.4138 136.728C82.4441 136.695 82.4648 136.655 82.4736 136.611C82.566 136.171 81.4132 135.084 81.18 134.851C81.1657 134.842 81.1488 134.837 81.1316 134.837C81.1144 134.837 81.0976 134.842 81.0832 134.851C81.0679 134.859 81.0556 134.873 81.0485 134.888C81.0413 134.904 81.0396 134.922 81.0436 134.939C81.1086 135.327 81.2163 135.706 81.3648 136.07ZM82.28 136.4C82.305 136.45 82.3156 136.507 82.3108 136.563C82.3108 136.585 82.3108 136.607 82.2492 136.624C82.1978 136.644 82.1427 136.652 82.0878 136.647C82.0329 136.643 81.9798 136.626 81.9324 136.598C81.664 136.44 81.4176 135.912 81.2592 135.164C81.66 135.522 82.0041 135.939 82.28 136.4Z" fill="#00B8AD"/>
<path d="M81.0616 134.97C81.0603 134.979 81.0603 134.988 81.0616 134.996C81.4224 135.362 82.5004 135.951 82.848 135.749C82.9228 135.705 83.002 135.608 82.9404 135.397C82.716 134.587 81.1804 134.842 81.1056 134.855C81.0902 134.858 81.0757 134.864 81.064 134.874C81.0522 134.884 81.0437 134.898 81.0396 134.913C81.0398 134.934 81.0476 134.954 81.0616 134.97ZM82.7776 135.388L82.7996 135.441C82.7996 135.529 82.7996 135.582 82.7996 135.604C82.5972 135.718 81.7832 135.34 81.352 134.996C81.7128 134.957 82.584 134.922 82.7776 135.388Z" fill="#00B8AD"/>
<path d="M84.9907 38.8561L85.6991 38.3765C85.6991 38.3765 85.4967 39.1201 84.9907 38.8561Z" fill="#1D2B36"/>
<path d="M142.512 154.119L139.102 154.123L138.182 146.23L141.592 146.225L142.512 154.119Z" fill="#FFC3BD"/>
<path d="M171.864 139.467L169.281 141.698L163.434 136.316L166.012 134.086L171.864 139.467Z" fill="#FFC3BD"/>
<path d="M168.78 141.61L171.921 138.89C171.973 138.848 172.037 138.825 172.104 138.825C172.171 138.825 172.235 138.848 172.287 138.89L174.68 140.8C174.739 140.849 174.785 140.91 174.818 140.98C174.85 141.049 174.866 141.124 174.866 141.2C174.866 141.277 174.85 141.352 174.818 141.421C174.785 141.49 174.739 141.552 174.68 141.601C173.655 142.459 172.867 143.035 171.6 144.135C170.817 144.813 168.52 146.942 167.438 147.88C166.355 148.817 165.33 147.827 165.678 147.343C167.306 145.178 168.318 143.26 168.476 142.12C168.515 141.92 168.623 141.739 168.78 141.61Z" fill="#1D2B36"/>
<path d="M139.124 153.727H142.851C142.918 153.728 142.984 153.751 143.037 153.793C143.089 153.836 143.126 153.895 143.141 153.961L143.819 156.992C143.835 157.065 143.835 157.141 143.818 157.214C143.801 157.287 143.768 157.356 143.721 157.414C143.674 157.472 143.615 157.519 143.547 157.551C143.479 157.584 143.405 157.6 143.33 157.599C141.984 157.577 140.043 157.503 138.354 157.503C136.383 157.503 135.225 157.555 132.911 157.56C131.512 157.56 131.12 156.147 131.705 156.02C134.372 155.43 136 155.426 138.305 154C138.548 153.835 138.831 153.74 139.124 153.727Z" fill="#1D2B36"/>
<path d="M128.04 56.1047C127.354 55.8407 126.764 55.5987 126.148 55.3171C125.532 55.0355 124.938 54.7583 124.34 54.4635C123.146 53.8768 121.972 53.2227 120.82 52.5011C119.659 51.7901 118.544 51.0084 117.48 50.1603C117.212 49.9403 116.939 49.7203 116.675 49.4959L115.892 48.7787C115.632 48.5411 115.386 48.2683 115.135 48.0131C115.007 47.8723 114.897 47.7711 114.752 47.6039C114.607 47.4367 114.466 47.2739 114.338 47.1067C113.857 46.4706 113.449 45.7829 113.12 45.0563C112.814 44.3928 112.554 43.7092 112.341 43.0103C111.936 41.6905 111.642 40.3395 111.461 38.9711C111.114 36.3368 111.047 33.673 111.263 31.0247H113.824C114 32.2171 114.184 33.4711 114.426 34.6767C114.668 35.8823 114.924 37.0879 115.236 38.2495C115.531 39.3841 115.905 40.4971 116.354 41.5803C116.726 42.5381 117.25 43.4295 117.907 44.2203L118.122 44.4403C118.188 44.5107 118.32 44.6163 118.417 44.7043C118.628 44.8847 118.822 45.0739 119.046 45.2455C119.486 45.5975 119.926 45.9451 120.419 46.2795C121.37 46.9395 122.373 47.5687 123.42 48.1583C124.467 48.7479 125.536 49.3067 126.623 49.8347C127.169 50.1031 127.719 50.3671 128.269 50.6135C128.819 50.8599 129.395 51.1195 129.888 51.3307L128.04 56.1047Z" fill="#FFC3BD"/>
<path d="M128.586 59.0086C126.644 57.8015 124.81 56.4295 123.104 54.9078L124.463 47.9602C126.991 48.6793 129.561 49.2406 132.159 49.641C136.449 50.1954 131.644 60.8302 128.586 59.0086Z" fill="#1D2B36"/>
<path d="M113.912 31.6232L114.154 27.2804L110.546 28.4376C110.546 28.4376 109.705 31.5484 112.046 32.3668L113.912 31.6232Z" fill="#FFC3BD"/>
<path d="M113.718 24.9438L110.739 26.1846L110.546 28.4374L114.154 27.2802L113.718 24.9438Z" fill="#FFC3BD"/>
<path opacity="0.2" d="M138.187 146.23L138.657 150.3L142.067 150.295L141.597 146.225L138.187 146.23Z" fill="black"/>
<path opacity="0.2" d="M166.016 134.086L163.434 136.316L166.452 139.088L169.03 136.858L166.016 134.086Z" fill="black"/>
<path d="M145.271 49.5C145.278 49.2585 145.238 49.0179 145.152 48.7921C145.066 48.5663 144.937 48.3596 144.77 48.1842C144.604 48.0087 144.405 47.8678 144.184 47.7697C143.964 47.6716 143.726 47.6181 143.484 47.6124C133.751 47.432 127.42 50.16 126.984 50.336C126.822 50.4016 126.679 50.5075 126.568 50.6438C126.458 50.7801 126.385 50.9422 126.355 51.1148C125.95 53.5524 124.802 63.7692 130.429 79.7588L148.469 77.176C148.227 74.514 144.866 62.2996 145.271 49.5Z" fill="#1D2B36"/>
<path d="M130.68 49.1087C129.611 50.5387 129.127 53.8343 132.669 56.2455C137.025 52.9939 139.269 49.4959 139.933 47.6743C136.807 47.8311 133.706 48.3118 130.68 49.1087Z" fill="white"/>
<path d="M129.871 50.4463C129.637 50.4463 129.414 50.3536 129.248 50.1886C129.083 50.0235 128.991 49.7997 128.991 49.5663C128.991 48.8403 129.62 48.2155 130.152 47.8063C131.939 46.4863 135.432 45.4787 139.832 46.7503C140.049 46.8217 140.229 46.9741 140.335 47.1755C140.441 47.3769 140.465 47.6116 140.402 47.8304C140.339 48.0491 140.193 48.2348 139.996 48.3485C139.799 48.4622 139.565 48.4949 139.344 48.4399C134.24 46.9659 131.094 49.0603 130.755 49.6631C130.731 49.8801 130.627 50.0804 130.464 50.2252C130.3 50.3699 130.089 50.4487 129.871 50.4463Z" fill="#00B8AD"/>
<path d="M137.183 39.3099C137.051 41.8487 137.214 46.4423 139.177 47.8415C138.024 49.3683 136.488 51.1591 133.571 51.6827C131.811 51.9951 131.208 51.3439 131.133 50.5211C131.109 50.1242 131.196 49.7284 131.386 49.379C131.576 49.0296 131.861 48.7407 132.207 48.5455C134.103 47.4455 133.725 45.6767 133.043 44.0047L137.183 39.3099Z" fill="#FFC3BD"/>
<path d="M129.602 70.6335C129.503 70.6331 129.405 70.6152 129.312 70.5807C129.092 70.503 128.912 70.3412 128.811 70.1308C128.71 69.9204 128.697 69.6787 128.775 69.4587C128.897 69.1509 128.954 68.821 128.942 68.4899C128.93 68.1589 128.849 67.8341 128.704 67.5359L128.612 67.2851C128.462 66.9896 128.263 66.7218 128.022 66.4931C127.508 66.0802 127.151 65.5019 127.014 64.8564C126.877 64.2108 126.968 63.5377 127.27 62.9511C127.378 62.7 127.442 62.4321 127.459 62.1591C127.375 61.8457 127.24 61.5484 127.059 61.2791C126.696 60.7599 126.481 60.1513 126.438 59.5191C126.488 58.858 126.728 58.2254 127.129 57.6975C127.281 57.4974 127.399 57.2747 127.481 57.0375C127.484 56.7927 127.436 56.55 127.34 56.3247C127.129 55.8247 127.077 55.2716 127.191 54.7407C127.369 54.1422 127.737 53.6174 128.238 53.2447C128.38 53.1377 128.503 53.0084 128.603 52.8619C128.666 52.6494 128.666 52.4233 128.603 52.2107C128.469 51.7011 128.541 51.1594 128.801 50.7015C129.109 50.2175 129.078 50.0943 129.052 49.9931C129.008 49.8388 128.988 49.6784 128.995 49.5179C128.995 49.2845 129.088 49.0607 129.253 48.8957C129.418 48.7307 129.641 48.6379 129.875 48.6379C130.108 48.6379 130.332 48.7307 130.497 48.8957C130.662 49.0607 130.755 49.2845 130.755 49.5179V49.5443C130.878 50.0415 130.913 50.6355 130.315 51.6079C130.322 51.7113 130.335 51.8141 130.354 51.9159C130.487 52.3999 130.467 52.9129 130.298 53.3853C130.129 53.8576 129.818 54.2664 129.408 54.5559C129.127 54.8023 128.968 54.9519 128.907 55.1675C128.898 55.3708 128.939 55.5732 129.026 55.7571C129.213 56.2277 129.286 56.7356 129.241 57.2399C129.144 57.7454 128.933 58.2223 128.625 58.6347C128.421 58.8921 128.28 59.1933 128.212 59.5147C128.283 59.8228 128.413 60.1141 128.594 60.3727C128.911 60.8455 129.125 61.379 129.224 61.9391C129.248 62.4688 129.157 62.9974 128.955 63.4879C128.812 63.8008 128.744 64.1429 128.757 64.4867C128.896 64.7919 129.095 65.0658 129.342 65.2919C129.75 65.69 130.073 66.1658 130.293 66.6911L130.372 66.9199C130.805 67.9036 130.832 69.0185 130.447 70.0219C130.39 70.2006 130.277 70.3564 130.125 70.4664C129.973 70.5764 129.79 70.635 129.602 70.6335Z" fill="#00B8AD"/>
<path d="M145.108 49.3549C145.587 49.7949 145.988 50.1645 146.393 50.5869C146.797 51.0093 147.193 51.4185 147.585 51.8409C148.368 52.6857 149.107 53.5745 149.82 54.4809C151.305 56.3595 152.548 58.4172 153.521 60.6057C153.766 61.1911 153.98 61.7888 154.163 62.3965C154.255 62.7045 154.335 63.0257 154.409 63.3513L154.436 63.4701L154.475 63.6769C154.502 63.8133 154.515 63.9585 154.528 64.1169C154.549 64.4104 154.54 64.7052 154.502 64.9969C154.437 65.5227 154.277 66.0325 154.031 66.5017C153.825 66.8924 153.576 67.2584 153.287 67.5929C152.811 68.1375 152.261 68.6142 151.655 69.0097C150.62 69.6869 149.506 70.2337 148.337 70.6377C147.783 70.8401 147.224 71.0117 146.661 71.1569C146.098 71.3021 145.552 71.4385 144.941 71.5397L144.149 69.1065C144.589 68.8601 145.059 68.6005 145.504 68.3365C145.948 68.0725 146.384 67.7953 146.824 67.5181C147.642 67.0011 148.412 66.4121 149.125 65.7581C149.398 65.4946 149.639 65.1991 149.842 64.8781C149.996 64.6273 149.983 64.4601 149.939 64.5129C149.936 64.5274 149.936 64.5424 149.939 64.5569L149.913 64.4777C149.847 64.2753 149.785 64.0685 149.697 63.8573C149.534 63.4279 149.347 63.0078 149.138 62.5989C148.696 61.7298 148.194 60.8932 147.633 60.0953C147.075 59.2681 146.459 58.4585 145.807 57.6665C145.156 56.8745 144.487 56.0957 143.779 55.3257C143.431 54.9429 143.075 54.5689 142.714 54.1993C142.353 53.8297 141.975 53.4425 141.654 53.1345L145.108 49.3549Z" fill="#FFC3BD"/>
<path d="M143.973 47.6873C145.961 47.9821 149.081 52.9673 149.081 52.9673L144.017 59.7565C144.017 59.7565 141.315 57.1825 140.527 54.9165C139.04 50.5693 140.065 47.1153 143.973 47.6873Z" fill="#1D2B36"/>
<path d="M141.319 64.7771C141.166 64.7754 141.017 64.7339 140.885 64.6568C140.753 64.5796 140.643 64.4694 140.567 64.3371C140.264 63.7454 140.133 63.0809 140.189 62.4187C140.212 62.1453 140.188 61.8699 140.118 61.6047C139.942 61.3314 139.72 61.0903 139.463 60.8919C138.956 60.5149 138.562 60.0068 138.323 59.4223C138.16 58.7798 138.189 58.1035 138.407 57.4775C138.487 57.239 138.53 56.9897 138.534 56.7383C138.423 56.4364 138.263 56.1553 138.059 55.9067C137.606 55.4407 137.34 54.8239 137.313 54.1744C137.286 53.5249 137.5 52.8883 137.914 52.3867C138.033 52.2074 138.129 52.0137 138.2 51.8103C138.177 51.4763 138.096 51.1489 137.962 50.8423C137.711 50.3233 137.625 49.7397 137.716 49.1703C137.88 48.3603 138.288 47.6202 138.886 47.0495L138.943 46.9923C139.108 46.8363 139.326 46.7496 139.552 46.7503C139.779 46.7511 139.996 46.8391 140.159 46.9961C140.323 47.1531 140.419 47.367 140.429 47.5933C140.438 47.8196 140.36 48.0409 140.211 48.2111L140.109 48.3123C139.75 48.659 139.508 49.11 139.419 49.6015C139.466 49.8223 139.532 50.0386 139.617 50.2483C139.847 50.7813 139.963 51.3571 139.955 51.9379C139.887 52.4197 139.708 52.879 139.432 53.2799C139.241 53.5396 139.116 53.8415 139.067 54.1599C139.17 54.4321 139.319 54.685 139.507 54.9079C139.862 55.3494 140.121 55.8605 140.268 56.4083C140.335 56.9187 140.285 57.4378 140.123 57.9263C140.011 58.236 139.97 58.5668 140.004 58.8943C140.171 59.164 140.387 59.3999 140.642 59.5895C141.089 59.9413 141.459 60.3817 141.729 60.8831C141.919 61.3775 141.997 61.908 141.957 62.4363C141.925 62.7789 141.968 63.1245 142.085 63.4483C142.204 63.6485 142.239 63.8878 142.182 64.1138C142.126 64.3399 141.981 64.5341 141.781 64.6539C141.642 64.7368 141.482 64.7794 141.319 64.7771Z" fill="#00B8AD"/>
<path opacity="0.2" d="M135.494 41.2236L133.047 44C133.232 44.4265 133.379 44.8682 133.487 45.32C134.517 45.0164 135.797 43.6568 135.753 42.5392C135.747 42.0887 135.659 41.643 135.494 41.2236Z" fill="black"/>
<path d="M130.35 32.0892C129.264 33.9812 129.959 36.674 129.959 36.674C130.25 36.8635 130.587 36.9717 130.935 36.9871C131.282 37.0026 131.627 36.9249 131.934 36.762L131.626 31.746L130.35 32.0892Z" fill="#1D2B36"/>
<path d="M138.917 36.8944C138.085 40.1768 137.764 42.1392 135.767 43.5252C132.761 45.6108 128.951 43.314 128.788 39.8512C128.639 36.7316 130.025 31.8916 133.527 31.1876C134.297 31.028 135.096 31.0681 135.846 31.3043C136.597 31.5404 137.274 31.9647 137.815 32.5367C138.355 33.1086 138.74 33.8093 138.933 34.5721C139.126 35.3349 139.12 36.1343 138.917 36.8944Z" fill="#FFC3BD"/>
<path d="M129.334 40.7134H129.215L121.757 39.1338C121.351 39.048 120.997 38.8047 120.771 38.4573C120.544 38.1099 120.466 37.6869 120.551 37.2814C120.637 36.8759 120.881 36.521 121.228 36.2949C121.575 36.0689 121.998 35.99 122.404 36.0758C122.478 36.0915 122.548 36.1216 122.61 36.1644C122.672 36.2072 122.725 36.2618 122.766 36.3252C122.807 36.3886 122.835 36.4595 122.848 36.5337C122.861 36.608 122.86 36.6841 122.844 36.7578C122.811 36.9062 122.721 37.0358 122.593 37.1182C122.466 37.2006 122.311 37.2292 122.162 37.1978C122.109 37.1851 122.055 37.1836 122.002 37.1934C121.949 37.2033 121.898 37.2243 121.854 37.255C121.809 37.2839 121.771 37.3213 121.74 37.3651C121.71 37.4089 121.689 37.4582 121.678 37.5102C121.658 37.6164 121.679 37.726 121.735 37.8182C121.796 37.9059 121.887 37.9684 121.99 37.9942L129.448 39.5738C129.587 39.604 129.709 39.6842 129.793 39.7991C129.876 39.9141 129.914 40.0557 129.899 40.1968C129.884 40.3379 129.818 40.4686 129.713 40.5639C129.608 40.6592 129.471 40.7125 129.329 40.7134H129.334Z" fill="#00B8AD"/>
<path d="M129.303 40.8453L128.401 40.6517L128.687 39.3317L129.567 39.5209C129.745 39.5589 129.9 39.666 129.999 39.8186C130.098 39.9712 130.133 40.1569 130.095 40.3349C130.051 40.5039 129.945 40.6502 129.799 40.7447C129.652 40.8393 129.475 40.8752 129.303 40.8453Z" fill="white"/>
<path d="M136.88 35.0901C136.88 33.8405 135.938 32.9297 132.797 33.1717C130.232 33.3653 128.982 32.1685 129.717 30.5009C131.794 31.5833 131.45 30.1665 135.41 29.9949C139.37 29.8233 140.519 31.3149 140.937 33.6337C143.361 37.2285 139.177 38.7201 139.177 38.7201L137.54 40.1501C137.201 40.2272 136.847 40.2119 136.516 40.1059C136.185 39.9999 135.888 39.807 135.657 39.5473C135.657 39.5473 135.336 36.6301 136.88 35.0901Z" fill="#1D2B36"/>
<path d="M132.673 29.3745L132.572 29.4273C132.478 29.4774 132.399 29.5515 132.342 29.642C132.286 29.7325 132.254 29.8363 132.251 29.9429C132.247 30.0495 132.272 30.1552 132.322 30.2493C132.372 30.3434 132.446 30.4226 132.537 30.4789L141.724 36.1593C141.811 36.2122 141.909 36.2428 142.01 36.248C142.111 36.2533 142.212 36.2331 142.304 36.1894C142.395 36.1456 142.474 36.0797 142.534 35.9976C142.593 35.9155 142.631 35.8198 142.644 35.7193C142.687 35.4355 142.646 35.1454 142.525 34.8849C142.405 34.6245 142.21 34.4051 141.966 34.2541L134.134 29.4141C133.915 29.2806 133.665 29.2068 133.409 29.1998C133.153 29.1929 132.899 29.2531 132.673 29.3745Z" fill="#00B8AD"/>
<path d="M134.328 29.9818L136.677 26.541C136.744 26.4429 136.846 26.3742 136.963 26.3488C137.079 26.3235 137.2 26.3434 137.302 26.4046L143.788 30.2897C143.844 30.3229 143.893 30.3678 143.931 30.4215C143.969 30.4751 143.996 30.5363 144.008 30.6009C144.021 30.6654 144.019 30.7319 144.004 30.7959C143.989 30.8598 143.96 30.9198 143.92 30.9718L141.108 34.6854L134.328 29.9818Z" fill="#00B8AD"/>
<path d="M134.328 29.9817L135.265 28.3053L142.507 33.0925L141.108 34.6853L134.328 29.9817Z" fill="#00B8AD"/>
<path opacity="0.6" d="M134.328 29.9817L135.265 28.3053L142.507 33.0925L141.108 34.6853L134.328 29.9817Z" fill="white"/>
<path d="M139.335 40.9203C138.691 41.3595 137.902 41.53 137.135 41.3955C136.136 41.2019 136.136 40.1899 136.827 39.4727C137.447 38.8259 138.719 38.1527 139.519 38.7115C140.32 39.2703 140.131 40.3703 139.335 40.9203Z" fill="#FFC3BD"/>
<path d="M137.377 149.517H143.15C143.15 149.517 142.243 128.986 140.998 118.435C140.62 115.223 141.029 110.823 141.069 105.908C141.121 99.7176 141.407 92.9724 141.689 87.6792C141.988 82.1044 142.239 78.0872 142.239 78.0872L130.429 79.7724C130.429 79.7724 129.259 109.002 131.094 119.245C133.003 129.884 137.377 149.517 137.377 149.517Z" fill="#00B8AD"/>
<path opacity="0.2" d="M141.069 105.895C141.122 99.7042 141.408 92.959 141.689 87.6658L139.929 85.3118C137.756 89.3818 139.265 100.219 141.069 105.895Z" fill="black"/>
<path d="M136.057 78.9538C136.057 78.9538 143.391 107.919 146.876 117.287C150.691 127.539 164.74 139.524 164.74 139.524L168.291 135.617C168.291 135.617 160.859 124.032 155.381 112.887C152.763 98.415 148.487 77.1762 148.487 77.1762L136.057 78.9538Z" fill="#00B8AD"/>
<path d="M164.265 140.114L169.831 135.305L168.393 133.646L162.079 138.913L164.265 140.114Z" fill="#1D2B36"/>
<path d="M136.651 149.648L143.533 149.64L143.528 147.418L135.841 147.312L136.651 149.648Z" fill="#1D2B36"/>
<path d="M133.848 36.252C133.628 36.186 133.368 36.3972 133.263 36.7272L134.046 36.978C134.151 36.648 134.064 36.3224 133.848 36.252Z" fill="#1D2B36"/>
<path d="M130.416 35.6052C130.192 35.6052 129.976 35.8604 129.976 36.208L130.794 36.2608C130.808 35.9132 130.645 35.6404 130.416 35.6052Z" fill="#1D2B36"/>
<path d="M131.6 36.6084C131.121 37.3734 130.539 38.0692 129.871 38.6764C130.031 38.843 130.226 38.9726 130.442 39.0562C130.658 39.1398 130.889 39.1753 131.12 39.1604L131.6 36.6084Z" fill="#ED847E"/>
<path d="M134.966 35.8997C134.993 35.9063 135.022 35.9063 135.049 35.8997C135.09 35.8866 135.124 35.858 135.144 35.8201C135.163 35.7823 135.168 35.7382 135.155 35.6973C135.087 35.4503 134.96 35.2234 134.785 35.0358C134.61 34.8482 134.393 34.7053 134.152 34.6193C134.132 34.6127 134.11 34.6102 134.089 34.6122C134.068 34.6142 134.047 34.6206 134.029 34.6309C134.01 34.6413 133.994 34.6554 133.981 34.6723C133.968 34.6892 133.959 34.7086 133.954 34.7293C133.948 34.7496 133.946 34.7708 133.948 34.7918C133.95 34.8127 133.957 34.833 133.967 34.8515C133.977 34.8699 133.991 34.8861 134.008 34.8992C134.024 34.9122 134.044 34.9218 134.064 34.9273C134.255 35.0009 134.426 35.1192 134.562 35.2723C134.698 35.4254 134.796 35.6088 134.847 35.8073C134.859 35.8308 134.875 35.8512 134.896 35.8673C134.916 35.8833 134.94 35.8944 134.966 35.8997Z" fill="#1D2B36"/>
<path d="M129.4 35.1431C129.426 35.1475 129.453 35.1454 129.479 35.137C129.504 35.1285 129.527 35.114 129.545 35.0947C129.678 34.9419 129.844 34.8225 130.032 34.746C130.219 34.6696 130.422 34.6383 130.623 34.6547C130.666 34.661 130.709 34.6502 130.744 34.6246C130.778 34.599 130.802 34.5608 130.808 34.5183C130.814 34.4768 130.804 34.4346 130.779 34.4008C130.755 34.367 130.717 34.3444 130.676 34.3379C130.421 34.3126 130.163 34.349 129.925 34.444C129.687 34.5389 129.475 34.6896 129.308 34.8835C129.292 34.8982 129.28 34.916 129.272 34.9357C129.263 34.9553 129.259 34.9765 129.259 34.9979C129.259 35.0192 129.263 35.0404 129.272 35.0601C129.28 35.0797 129.292 35.0975 129.308 35.1123C129.335 35.1308 129.367 35.1415 129.4 35.1431Z" fill="#1D2B36"/>
<path d="M168.296 142.815C168.52 142.611 168.721 142.382 168.894 142.133C168.903 142.12 168.908 142.105 168.908 142.089C168.908 142.074 168.903 142.058 168.894 142.045C168.888 142.031 168.876 142.019 168.862 142.012C168.847 142.004 168.831 142.002 168.815 142.006C168.674 142.006 167.42 142.213 167.258 142.613C167.24 142.657 167.233 142.705 167.24 142.752C167.246 142.799 167.264 142.844 167.293 142.881C167.335 142.949 167.393 143.005 167.462 143.045C167.531 143.084 167.609 143.105 167.689 143.106C167.919 143.082 168.133 142.98 168.296 142.815ZM168.648 142.199C168.283 142.67 167.931 142.943 167.693 142.943C167.639 142.942 167.587 142.926 167.54 142.899C167.494 142.871 167.456 142.832 167.429 142.785C167.419 142.769 167.414 142.751 167.414 142.732C167.414 142.713 167.419 142.695 167.429 142.679C167.491 142.472 168.146 142.287 168.648 142.199Z" fill="#00B8AD"/>
<path d="M168.881 142.151C168.893 142.14 168.902 142.126 168.907 142.111C168.914 142.098 168.917 142.084 168.917 142.07C168.917 142.055 168.914 142.041 168.907 142.028C168.876 141.997 168.203 141.28 167.702 141.284C167.64 141.284 167.58 141.297 167.523 141.322C167.467 141.347 167.417 141.384 167.376 141.429C167.329 141.47 167.298 141.525 167.287 141.586C167.276 141.647 167.285 141.709 167.314 141.764C167.495 142.107 168.476 142.248 168.863 142.169L168.881 142.151ZM167.499 141.517C167.55 141.473 167.616 141.45 167.684 141.451C168.005 141.451 168.445 141.825 168.656 142.023C168.216 142.045 167.543 141.887 167.433 141.685C167.433 141.663 167.402 141.619 167.473 141.544L167.499 141.517Z" fill="#00B8AD"/>
<path d="M138.79 154.203C138.804 154.198 138.816 154.189 138.826 154.177C138.835 154.166 138.841 154.152 138.842 154.137C138.846 154.12 138.844 154.103 138.837 154.088C138.83 154.073 138.818 154.061 138.803 154.053C138.644 153.974 137.276 153.279 136.862 153.512C136.823 153.533 136.789 153.564 136.765 153.601C136.741 153.639 136.728 153.683 136.726 153.728C136.717 153.8 136.726 153.874 136.753 153.943C136.78 154.011 136.824 154.072 136.88 154.119C137.254 154.449 138.231 154.313 138.781 154.203H138.79ZM136.968 153.64C137.228 153.552 137.971 153.833 138.512 154.08C137.76 154.207 137.192 154.176 136.986 153.987C136.949 153.956 136.921 153.915 136.904 153.87C136.887 153.824 136.882 153.775 136.889 153.728C136.889 153.71 136.894 153.693 136.903 153.678C136.912 153.663 136.926 153.651 136.942 153.644L136.968 153.64Z" fill="#00B8AD"/>
<path d="M138.789 154.203H138.811C138.823 154.194 138.832 154.182 138.838 154.169C138.844 154.156 138.847 154.142 138.847 154.128C138.847 154.093 138.745 153.173 138.314 152.808C138.254 152.756 138.184 152.718 138.108 152.694C138.033 152.671 137.953 152.663 137.874 152.671C137.65 152.671 137.588 152.808 137.575 152.896C137.513 153.283 138.327 154.018 138.741 154.216C138.758 154.216 138.775 154.212 138.789 154.203ZM137.799 152.843H137.883C137.942 152.836 138.001 152.842 138.057 152.86C138.113 152.879 138.165 152.909 138.209 152.949C138.46 153.244 138.614 153.61 138.649 153.996C138.231 153.745 137.672 153.169 137.711 152.935C137.72 152.905 137.72 152.865 137.799 152.843Z" fill="#00B8AD"/>
<path d="M144.562 68.8779L141.28 69.9163L143.827 72.4507C143.827 72.4507 146.802 71.1615 145.869 69.8503L144.562 68.8779Z" fill="#FFC3BD"/>
<path d="M139.929 72.8116L142.265 74.2284L143.827 72.4508L141.28 69.9164L139.929 72.8116Z" fill="#FFC3BD"/>
</svg>
